<svg width="41" height="27" viewBox="0 0 41 27" fill="none" xmlns="http://www.w3.org/2000/svg">
<rect x="0.5" y="0.5" width="40" height="26" rx="3.5" fill="white"/>
<path d="M16.0795 12H15.0227C14.9602 11.696 14.8509 11.429 14.6946 11.1989C14.5412 10.9688 14.3537 10.7756 14.1321 10.6193C13.9134 10.4602 13.6705 10.3409 13.4034 10.2614C13.1364 10.1818 12.858 10.142 12.5682 10.142C12.0398 10.142 11.5611 10.2756 11.1321 10.5426C10.706 10.8097 10.3665 11.2031 10.1136 11.723C9.86364 12.2429 9.73864 12.8807 9.73864 13.6364C9.73864 14.392 9.86364 15.0298 10.1136 15.5497C10.3665 16.0696 10.706 16.4631 11.1321 16.7301C11.5611 16.9972 12.0398 17.1307 12.5682 17.1307C12.858 17.1307 13.1364 17.0909 13.4034 17.0114C13.6705 16.9318 13.9134 16.8139 14.1321 16.6577C14.3537 16.4986 14.5412 16.304 14.6946 16.0739C14.8509 15.8409 14.9602 15.5739 15.0227 15.2727H16.0795C16 15.7187 15.8551 16.1179 15.6449 16.4702C15.4347 16.8224 15.1733 17.1222 14.8608 17.3693C14.5483 17.6136 14.1974 17.7997 13.8082 17.9276C13.4219 18.0554 13.0085 18.1193 12.5682 18.1193C11.8239 18.1193 11.1619 17.9375 10.5824 17.5739C10.0028 17.2102 9.54688 16.6932 9.21449 16.0227C8.8821 15.3523 8.71591 14.5568 8.71591 13.6364C8.71591 12.7159 8.8821 11.9205 9.21449 11.25C9.54688 10.5795 10.0028 10.0625 10.5824 9.69886C11.1619 9.33523 11.8239 9.15341 12.5682 9.15341C13.0085 9.15341 13.4219 9.21733 13.8082 9.34517C14.1974 9.47301 14.5483 9.66051 14.8608 9.90767C15.1733 10.152 15.4347 10.4503 15.6449 10.8026C15.8551 11.152 16 11.5511 16.0795 12ZM22.56 11.4545C22.5089 11.0227 22.3015 10.6875 21.9379 10.4489C21.5742 10.2102 21.1282 10.0909 20.5998 10.0909C20.2134 10.0909 19.8754 10.1534 19.5856 10.2784C19.2987 10.4034 19.0742 10.5753 18.9123 10.794C18.7532 11.0128 18.6737 11.2614 18.6737 11.5398C18.6737 11.7727 18.729 11.973 18.8398 12.1406C18.9535 12.3054 19.0984 12.4432 19.2745 12.554C19.4506 12.6619 19.6353 12.7514 19.8285 12.8224C20.0217 12.8906 20.1992 12.946 20.3612 12.9886L21.2475 13.2273C21.4748 13.2869 21.7276 13.3693 22.006 13.4744C22.2873 13.5795 22.5558 13.723 22.8114 13.9048C23.07 14.0838 23.283 14.3139 23.4506 14.5952C23.6183 14.8764 23.7021 15.2216 23.7021 15.6307C23.7021 16.1023 23.5785 16.5284 23.3313 16.9091C23.087 17.2898 22.729 17.5923 22.2575 17.8168C21.7887 18.0412 21.2191 18.1534 20.5487 18.1534C19.9237 18.1534 19.3825 18.0526 18.9251 17.8509C18.4705 17.6491 18.1126 17.3679 17.8512 17.0071C17.5927 16.6463 17.4464 16.2273 17.4123 15.75H18.5032C18.5316 16.0795 18.6424 16.3523 18.8356 16.5682C19.0316 16.7812 19.2788 16.9403 19.5771 17.0455C19.8782 17.1477 20.2021 17.1989 20.5487 17.1989C20.9521 17.1989 21.3143 17.1335 21.6353 17.0028C21.9563 16.8693 22.2106 16.6847 22.3981 16.4489C22.5856 16.2102 22.6793 15.9318 22.6793 15.6136C22.6793 15.3239 22.5984 15.0881 22.4364 14.9062C22.2745 14.7244 22.0614 14.5767 21.7972 14.4631C21.533 14.3494 21.2475 14.25 20.9407 14.1648L19.8668 13.858C19.185 13.6619 18.6452 13.3821 18.2475 13.0185C17.8498 12.6548 17.6509 12.179 17.6509 11.5909C17.6509 11.1023 17.783 10.6761 18.0472 10.3125C18.3143 9.94602 18.6722 9.66193 19.1211 9.46023C19.5728 9.25568 20.0771 9.15341 20.6339 9.15341C21.1964 9.15341 21.6964 9.25426 22.1339 9.45597C22.5714 9.65483 22.918 9.92756 23.1737 10.2741C23.4322 10.6207 23.5685 11.0142 23.5827 11.4545H22.56ZM30.2124 11.4545C30.1612 11.0227 29.9538 10.6875 29.5902 10.4489C29.2266 10.2102 28.7805 10.0909 28.2521 10.0909C27.8658 10.0909 27.5277 10.1534 27.2379 10.2784C26.951 10.4034 26.7266 10.5753 26.5646 10.794C26.4055 11.0128 26.326 11.2614 26.326 11.5398C26.326 11.7727 26.3814 11.973 26.4922 12.1406C26.6058 12.3054 26.7507 12.4432 26.9268 12.554C27.103 12.6619 27.2876 12.7514 27.4808 12.8224C27.674 12.8906 27.8516 12.946 28.0135 12.9886L28.8999 13.2273C29.1271 13.2869 29.38 13.3693 29.6584 13.4744C29.9396 13.5795 30.2081 13.723 30.4638 13.9048C30.7223 14.0838 30.9354 14.3139 31.103 14.5952C31.2706 14.8764 31.3544 15.2216 31.3544 15.6307C31.3544 16.1023 31.2308 16.5284 30.9837 16.9091C30.7393 17.2898 30.3814 17.5923 29.9098 17.8168C29.4411 18.0412 28.8714 18.1534 28.201 18.1534C27.576 18.1534 27.0348 18.0526 26.5774 17.8509C26.1229 17.6491 25.7649 17.3679 25.5036 17.0071C25.245 16.6463 25.0987 16.2273 25.0646 15.75H26.1555C26.1839 16.0795 26.2947 16.3523 26.4879 16.5682C26.6839 16.7812 26.9311 16.9403 27.2294 17.0455C27.5305 17.1477 27.8544 17.1989 28.201 17.1989C28.6044 17.1989 28.9666 17.1335 29.2876 17.0028C29.6087 16.8693 29.8629 16.6847 30.0504 16.4489C30.2379 16.2102 30.3317 15.9318 30.3317 15.6136C30.3317 15.3239 30.2507 15.0881 30.0888 14.9062C29.9268 14.7244 29.7138 14.5767 29.4496 14.4631C29.1854 14.3494 28.8999 14.25 28.593 14.1648L27.5192 13.858C26.8374 13.6619 26.2976 13.3821 25.8999 13.0185C25.5021 12.6548 25.3033 12.179 25.3033 11.5909C25.3033 11.1023 25.4354 10.6761 25.6996 10.3125C25.9666 9.94602 26.3246 9.66193 26.7734 9.46023C27.2251 9.25568 27.7294 9.15341 28.2862 9.15341C28.8487 9.15341 29.3487 9.25426 29.7862 9.45597C30.2237 9.65483 30.5703 9.92756 30.826 10.2741C31.0845 10.6207 31.2209 11.0142 31.2351 11.4545H30.2124Z" fill="#211B12"/>
<rect x="0.5" y="0.5" width="40" height="26" rx="3.5" stroke="#DD9C3C"/>
</svg>
