<svg width="33" height="27" viewBox="0 0 33 27" fill="none" xmlns="http://www.w3.org/2000/svg">
<rect x="0.5" y="0.5" width="32" height="26" rx="3.5" fill="white"/>
<path d="M15.0227 12C14.929 11.7131 14.8054 11.456 14.652 11.2287C14.5014 10.9986 14.321 10.8026 14.1108 10.6406C13.9034 10.4787 13.6676 10.3551 13.4034 10.2699C13.1392 10.1847 12.8494 10.142 12.5341 10.142C12.017 10.142 11.5469 10.2756 11.1236 10.5426C10.7003 10.8097 10.3636 11.2031 10.1136 11.723C9.86364 12.2429 9.73864 12.8807 9.73864 13.6364C9.73864 14.392 9.86506 15.0298 10.1179 15.5497C10.3707 16.0696 10.7131 16.4631 11.1449 16.7301C11.5767 16.9972 12.0625 17.1307 12.6023 17.1307C13.1023 17.1307 13.5426 17.0241 13.9233 16.8111C14.3068 16.5952 14.6051 16.2912 14.8182 15.8991C15.0341 15.5043 15.142 15.0398 15.142 14.5057L15.4659 14.5739H12.8409V13.6364H16.1648V14.5739C16.1648 15.2926 16.0114 15.9176 15.7045 16.4489C15.4006 16.9801 14.9801 17.392 14.4432 17.6847C13.9091 17.9744 13.2955 18.1193 12.6023 18.1193C11.8295 18.1193 11.1506 17.9375 10.5653 17.5739C9.98295 17.2102 9.52841 16.6932 9.2017 16.0227C8.87784 15.3523 8.71591 14.5568 8.71591 13.6364C8.71591 12.946 8.80824 12.3253 8.9929 11.7741C9.1804 11.2202 9.4446 10.7486 9.78551 10.3594C10.1264 9.97017 10.5298 9.67188 10.9957 9.46449C11.4616 9.2571 11.9744 9.15341 12.5341 9.15341C12.9943 9.15341 13.4233 9.22301 13.821 9.36222C14.2216 9.49858 14.5781 9.69318 14.8906 9.94602C15.206 10.196 15.4688 10.4957 15.679 10.8452C15.8892 11.1918 16.0341 11.5767 16.1136 12H15.0227ZM18.2486 18V11.4545H19.2543V18H18.2486ZM18.7599 10.3636C18.5639 10.3636 18.3949 10.2969 18.2528 10.1634C18.1136 10.0298 18.044 9.86932 18.044 9.68182C18.044 9.49432 18.1136 9.33381 18.2528 9.20028C18.3949 9.06676 18.5639 9 18.7599 9C18.956 9 19.1236 9.06676 19.2628 9.20028C19.4048 9.33381 19.4759 9.49432 19.4759 9.68182C19.4759 9.86932 19.4048 10.0298 19.2628 10.1634C19.1236 10.2969 18.956 10.3636 18.7599 10.3636ZM23.9428 11.4545V12.3068H20.5508V11.4545H23.9428ZM21.5394 9.88636H22.5451V16.125C22.5451 16.4091 22.5863 16.6222 22.6687 16.7642C22.7539 16.9034 22.8619 16.9972 22.9925 17.0455C23.1261 17.0909 23.2667 17.1136 23.4144 17.1136C23.5252 17.1136 23.6161 17.108 23.6871 17.0966C23.7582 17.0824 23.815 17.071 23.8576 17.0625L24.0621 17.9659C23.994 17.9915 23.8988 18.017 23.7766 18.0426C23.6545 18.071 23.4996 18.0852 23.3121 18.0852C23.0281 18.0852 22.7496 18.0241 22.4769 17.902C22.207 17.7798 21.9826 17.5938 21.8036 17.3438C21.6275 17.0938 21.5394 16.7784 21.5394 16.3977V9.88636Z" fill="#211B12"/>
<rect x="0.5" y="0.5" width="32" height="26" rx="3.5" stroke="#DD9C3C"/>
</svg>
