<svg width="51" height="27" viewBox="0 0 51 27" fill="none" xmlns="http://www.w3.org/2000/svg">
<rect x="0.5" y="0.5" width="50" height="26" rx="3.5" fill="white"/>
<path d="M9.05682 18V9.27273H10.1136V13.1591H14.767V9.27273H15.8239V18H14.767V14.0966H10.1136V18H9.05682ZM17.4624 10.2102V9.27273H24.0078V10.2102H21.2635V18H20.2067V10.2102H17.4624ZM25.6388 9.27273H26.9002L29.8661 16.517H29.9684L32.9343 9.27273H34.1957V18H33.207V11.3693H33.1218L30.3945 18H29.44L26.7127 11.3693H26.6275V18H25.6388V9.27273ZM36.3146 18V9.27273H37.3714V17.0625H41.4283V18H36.3146Z" fill="#211B12"/>
<rect x="0.5" y="0.5" width="50" height="26" rx="3.5" stroke="#DD9C3C"/>
</svg>
