<svg width="76" height="27" viewBox="0 0 76 27" fill="none" xmlns="http://www.w3.org/2000/svg">
<rect x="0.5" y="0.5" width="75" height="26" rx="3.5" fill="white"/>
<path d="M12.3977 9.27273H13.4545V15.5114C13.4545 16.0682 13.3523 16.5412 13.1477 16.9304C12.9432 17.3196 12.6548 17.6151 12.2827 17.8168C11.9105 18.0185 11.4716 18.1193 10.9659 18.1193C10.4886 18.1193 10.0639 18.0327 9.69176 17.8594C9.3196 17.6832 9.02699 17.4332 8.81392 17.1094C8.60085 16.7855 8.49432 16.4006 8.49432 15.9545H9.53409C9.53409 16.2017 9.59517 16.4176 9.71733 16.6023C9.84233 16.7841 10.0128 16.9261 10.2287 17.0284C10.4446 17.1307 10.6903 17.1818 10.9659 17.1818C11.2699 17.1818 11.5284 17.1179 11.7415 16.9901C11.9545 16.8622 12.1165 16.6747 12.2273 16.4276C12.3409 16.1776 12.3977 15.8722 12.3977 15.5114V9.27273ZM17.3622 18.1534C16.9474 18.1534 16.571 18.0753 16.233 17.919C15.8949 17.7599 15.6264 17.5312 15.4276 17.233C15.2287 16.9318 15.1293 16.5682 15.1293 16.142C15.1293 15.767 15.2031 15.4631 15.3509 15.2301C15.4986 14.9943 15.696 14.8097 15.9432 14.6761C16.1903 14.5426 16.4631 14.4432 16.7614 14.3778C17.0625 14.3097 17.3651 14.2557 17.669 14.2159C18.0668 14.1648 18.3892 14.1264 18.6364 14.1009C18.8864 14.0724 19.0682 14.0256 19.1818 13.9602C19.2983 13.8949 19.3565 13.7812 19.3565 13.6193V13.5852C19.3565 13.1648 19.2415 12.8381 19.0114 12.6051C18.7841 12.3722 18.4389 12.2557 17.9759 12.2557C17.4957 12.2557 17.1193 12.3608 16.8466 12.571C16.5739 12.7812 16.3821 13.0057 16.2713 13.2443L15.3168 12.9034C15.4872 12.5057 15.7145 12.196 15.9986 11.9744C16.2855 11.75 16.598 11.5937 16.9361 11.5057C17.277 11.4148 17.6122 11.3693 17.9418 11.3693C18.152 11.3693 18.3935 11.3949 18.6662 11.446C18.9418 11.4943 19.2074 11.5952 19.4631 11.7486C19.7216 11.902 19.9361 12.1335 20.1065 12.4432C20.277 12.7528 20.3622 13.1676 20.3622 13.6875V18H19.3565V17.1136H19.3054C19.2372 17.2557 19.1236 17.4077 18.9645 17.5696C18.8054 17.7315 18.5938 17.8693 18.3295 17.983C18.0653 18.0966 17.7429 18.1534 17.3622 18.1534ZM17.5156 17.25C17.9134 17.25 18.2486 17.1719 18.5213 17.0156C18.7969 16.8594 19.0043 16.6577 19.1435 16.4105C19.2855 16.1634 19.3565 15.9034 19.3565 15.6307V14.7102C19.3139 14.7614 19.2202 14.8082 19.0753 14.8509C18.9332 14.8906 18.7685 14.9261 18.581 14.9574C18.3963 14.9858 18.2159 15.0114 18.0398 15.0341C17.8665 15.054 17.7259 15.071 17.6179 15.0852C17.3565 15.1193 17.1122 15.1747 16.8849 15.2514C16.6605 15.3253 16.4787 15.4375 16.3395 15.5881C16.2031 15.7358 16.1349 15.9375 16.1349 16.1932C16.1349 16.5426 16.2642 16.8068 16.5227 16.9858C16.7841 17.1619 17.1151 17.25 17.5156 17.25ZM27.3157 11.4545L24.8952 18H23.8725L21.4521 11.4545H22.543L24.3498 16.6705H24.418L26.2248 11.4545H27.3157ZM30.37 18.1534C29.9553 18.1534 29.5788 18.0753 29.2408 17.919C28.9027 17.7599 28.6342 17.5312 28.4354 17.233C28.2365 16.9318 28.1371 16.5682 28.1371 16.142C28.1371 15.767 28.2109 15.4631 28.3587 15.2301C28.5064 14.9943 28.7038 14.8097 28.951 14.6761C29.1982 14.5426 29.4709 14.4432 29.7692 14.3778C30.0703 14.3097 30.3729 14.2557 30.6768 14.2159C31.0746 14.1648 31.397 14.1264 31.6442 14.1009C31.8942 14.0724 32.076 14.0256 32.1896 13.9602C32.3061 13.8949 32.3643 13.7812 32.3643 13.6193V13.5852C32.3643 13.1648 32.2493 12.8381 32.0192 12.6051C31.7919 12.3722 31.4467 12.2557 30.9837 12.2557C30.5036 12.2557 30.1271 12.3608 29.8544 12.571C29.5817 12.7812 29.3899 13.0057 29.2791 13.2443L28.3246 12.9034C28.495 12.5057 28.7223 12.196 29.0064 11.9744C29.2933 11.75 29.6058 11.5937 29.9439 11.5057C30.2848 11.4148 30.62 11.3693 30.9496 11.3693C31.1598 11.3693 31.4013 11.3949 31.674 11.446C31.9496 11.4943 32.2152 11.5952 32.4709 11.7486C32.7294 11.902 32.9439 12.1335 33.1143 12.4432C33.2848 12.7528 33.37 13.1676 33.37 13.6875V18H32.3643V17.1136H32.3132C32.245 17.2557 32.1314 17.4077 31.9723 17.5696C31.8132 17.7315 31.6016 17.8693 31.3374 17.983C31.0732 18.0966 30.7507 18.1534 30.37 18.1534ZM30.5234 17.25C30.9212 17.25 31.2564 17.1719 31.5291 17.0156C31.8047 16.8594 32.0121 16.6577 32.1513 16.4105C32.2933 16.1634 32.3643 15.9034 32.3643 15.6307V14.7102C32.3217 14.7614 32.228 14.8082 32.0831 14.8509C31.9411 14.8906 31.7763 14.9261 31.5888 14.9574C31.4041 14.9858 31.2237 15.0114 31.0476 15.0341C30.8743 15.054 30.7337 15.071 30.6257 15.0852C30.3643 15.1193 30.12 15.1747 29.8928 15.2514C29.6683 15.3253 29.4865 15.4375 29.3473 15.5881C29.2109 15.7358 29.1428 15.9375 29.1428 16.1932C29.1428 16.5426 29.272 16.8068 29.5305 16.9858C29.7919 17.1619 30.1229 17.25 30.5234 17.25ZM40.1147 11.4545C40.0636 11.0227 39.8562 10.6875 39.4925 10.4489C39.1289 10.2102 38.6829 10.0909 38.1545 10.0909C37.7681 10.0909 37.43 10.1534 37.1403 10.2784C36.8533 10.4034 36.6289 10.5753 36.467 10.794C36.3079 11.0128 36.2283 11.2614 36.2283 11.5398C36.2283 11.7727 36.2837 11.973 36.3945 12.1406C36.5082 12.3054 36.6531 12.4432 36.8292 12.554C37.0053 12.6619 37.19 12.7514 37.3832 12.8224C37.5763 12.8906 37.7539 12.946 37.9158 12.9886L38.8022 13.2273C39.0295 13.2869 39.2823 13.3693 39.5607 13.4744C39.842 13.5795 40.1104 13.723 40.3661 13.9048C40.6246 14.0838 40.8377 14.3139 41.0053 14.5952C41.1729 14.8764 41.2567 15.2216 41.2567 15.6307C41.2567 16.1023 41.1332 16.5284 40.886 16.9091C40.6417 17.2898 40.2837 17.5923 39.8121 17.8168C39.3434 18.0412 38.7738 18.1534 38.1033 18.1534C37.4783 18.1534 36.9371 18.0526 36.4798 17.8509C36.0252 17.6491 35.6673 17.3679 35.4059 17.0071C35.1474 16.6463 35.0011 16.2273 34.967 15.75H36.0579C36.0863 16.0795 36.1971 16.3523 36.3903 16.5682C36.5863 16.7812 36.8335 16.9403 37.1317 17.0455C37.4329 17.1477 37.7567 17.1989 38.1033 17.1989C38.5067 17.1989 38.869 17.1335 39.19 17.0028C39.511 16.8693 39.7653 16.6847 39.9528 16.4489C40.1403 16.2102 40.234 15.9318 40.234 15.6136C40.234 15.3239 40.1531 15.0881 39.9911 14.9062C39.8292 14.7244 39.6161 14.5767 39.3519 14.4631C39.0877 14.3494 38.8022 14.25 38.4954 14.1648L37.4215 13.858C36.7397 13.6619 36.1999 13.3821 35.8022 13.0185C35.4045 12.6548 35.2056 12.179 35.2056 11.5909C35.2056 11.1023 35.3377 10.6761 35.6019 10.3125C35.869 9.94602 36.2269 9.66193 36.6758 9.46023C37.1275 9.25568 37.6317 9.15341 38.1886 9.15341C38.7511 9.15341 39.2511 9.25426 39.6886 9.45597C40.1261 9.65483 40.4727 9.92756 40.7283 10.2741C40.9869 10.6207 41.1232 11.0142 41.1374 11.4545H40.1147ZM45.517 18.1364C44.9034 18.1364 44.375 17.9915 43.9318 17.7017C43.4886 17.4119 43.1477 17.0128 42.9091 16.5043C42.6705 15.9957 42.5511 15.4148 42.5511 14.7614C42.5511 14.0966 42.6733 13.5099 42.9176 13.0014C43.1648 12.4901 43.5085 12.0909 43.9489 11.804C44.392 11.5142 44.9091 11.3693 45.5 11.3693C45.9602 11.3693 46.375 11.4545 46.7443 11.625C47.1136 11.7955 47.4162 12.0341 47.652 12.3409C47.8878 12.6477 48.0341 13.0057 48.0909 13.4148H47.0852C47.0085 13.1165 46.8381 12.8523 46.5739 12.6222C46.3125 12.3892 45.9602 12.2727 45.517 12.2727C45.125 12.2727 44.7813 12.375 44.4858 12.5795C44.1932 12.7812 43.9645 13.0668 43.7997 13.4361C43.6378 13.8026 43.5568 14.233 43.5568 14.7273C43.5568 15.233 43.6364 15.6733 43.7955 16.0483C43.9574 16.4233 44.1847 16.7145 44.4773 16.9219C44.7727 17.1293 45.1193 17.233 45.517 17.233C45.7784 17.233 46.0156 17.1875 46.2287 17.0966C46.4418 17.0057 46.6222 16.875 46.7699 16.7045C46.9176 16.5341 47.0227 16.3295 47.0852 16.0909H48.0909C48.0341 16.4773 47.8935 16.8253 47.669 17.1349C47.4474 17.4418 47.1534 17.6861 46.7869 17.8679C46.4233 18.0469 46 18.1364 45.517 18.1364ZM49.5611 18V11.4545H50.5327V12.4432H50.6009C50.7202 12.1193 50.9361 11.8565 51.2486 11.6548C51.5611 11.4531 51.9134 11.3523 52.3054 11.3523C52.3793 11.3523 52.4716 11.3537 52.5824 11.3565C52.6932 11.3594 52.777 11.3636 52.8338 11.3693V12.392C52.7997 12.3835 52.7216 12.3707 52.5994 12.3537C52.4801 12.3338 52.3537 12.3239 52.2202 12.3239C51.902 12.3239 51.6179 12.3906 51.3679 12.5241C51.1207 12.6548 50.9247 12.8366 50.7798 13.0696C50.6378 13.2997 50.5668 13.5625 50.5668 13.858V18H49.5611ZM54.0259 18V11.4545H55.0316V18H54.0259ZM54.5373 10.3636C54.3413 10.3636 54.1722 10.2969 54.0302 10.1634C53.891 10.0298 53.8214 9.86932 53.8214 9.68182C53.8214 9.49432 53.891 9.33381 54.0302 9.20028C54.1722 9.06676 54.3413 9 54.5373 9C54.7333 9 54.9009 9.06676 55.0401 9.20028C55.1822 9.33381 55.2532 9.49432 55.2532 9.68182C55.2532 9.86932 55.1822 10.0298 55.0401 10.1634C54.9009 10.2969 54.7333 10.3636 54.5373 10.3636ZM56.8736 20.4545V11.4545H57.8452V12.4943H57.9645C58.0384 12.3807 58.1406 12.2358 58.2713 12.0597C58.4048 11.8807 58.5952 11.7216 58.8423 11.5824C59.0923 11.4403 59.4304 11.3693 59.8565 11.3693C60.4077 11.3693 60.8935 11.5071 61.3139 11.7827C61.7344 12.0582 62.0625 12.4489 62.2983 12.9545C62.5341 13.4602 62.652 14.0568 62.652 14.7443C62.652 15.4375 62.5341 16.0384 62.2983 16.5469C62.0625 17.0526 61.7358 17.4446 61.3182 17.723C60.9006 17.9986 60.419 18.1364 59.8736 18.1364C59.4531 18.1364 59.1165 18.0668 58.8636 17.9276C58.6108 17.7855 58.4162 17.625 58.2798 17.446C58.1435 17.2642 58.0384 17.1136 57.9645 16.9943H57.8793V20.4545H56.8736ZM57.8622 14.7273C57.8622 15.2216 57.9347 15.6577 58.0795 16.0355C58.2244 16.4105 58.4361 16.7045 58.7145 16.9176C58.9929 17.1278 59.3338 17.233 59.7372 17.233C60.1577 17.233 60.5085 17.1222 60.7898 16.9006C61.0739 16.6761 61.2869 16.375 61.429 15.9972C61.5739 15.6165 61.6463 15.1932 61.6463 14.7273C61.6463 14.267 61.5753 13.8523 61.4332 13.483C61.294 13.1108 61.0824 12.8168 60.7983 12.6009C60.517 12.3821 60.1634 12.2727 59.7372 12.2727C59.3281 12.2727 58.9844 12.3764 58.706 12.5838C58.4276 12.7884 58.2173 13.0753 58.0753 13.4446C57.9332 13.8111 57.8622 14.2386 57.8622 14.7273ZM67.0327 11.4545V12.3068H63.6406V11.4545H67.0327ZM64.6293 9.88636H65.6349V16.125C65.6349 16.4091 65.6761 16.6222 65.7585 16.7642C65.8438 16.9034 65.9517 16.9972 66.0824 17.0455C66.2159 17.0909 66.3565 17.1136 66.5043 17.1136C66.6151 17.1136 66.706 17.108 66.777 17.0966C66.848 17.0824 66.9048 17.071 66.9474 17.0625L67.152 17.9659C67.0838 17.9915 66.9886 18.017 66.8665 18.0426C66.7443 18.071 66.5895 18.0852 66.402 18.0852C66.1179 18.0852 65.8395 18.0241 65.5668 17.902C65.2969 17.7798 65.0724 17.5938 64.8935 17.3438C64.7173 17.0938 64.6293 16.7784 64.6293 16.3977V9.88636Z" fill="#211B12"/>
<rect x="0.5" y="0.5" width="75" height="26" rx="3.5" stroke="#DD9C3C"/>
</svg>
