<svg width="48" height="27" viewBox="0 0 48 27" fill="none" xmlns="http://www.w3.org/2000/svg">
<rect x="0.5" y="0.5" width="47" height="26" rx="3.5" fill="white"/>
<path d="M9.41477 9.27273L12.0057 16.6193H12.108L14.6989 9.27273H15.8068L12.6023 18H11.5114L8.30682 9.27273H9.41477ZM17.0298 18V11.4545H18.0355V18H17.0298ZM17.5412 10.3636C17.3452 10.3636 17.1761 10.2969 17.0341 10.1634C16.8949 10.0298 16.8253 9.86932 16.8253 9.68182C16.8253 9.49432 16.8949 9.33381 17.0341 9.20028C17.1761 9.06676 17.3452 9 17.5412 9C17.7372 9 17.9048 9.06676 18.044 9.20028C18.1861 9.33381 18.2571 9.49432 18.2571 9.68182C18.2571 9.86932 18.1861 10.0298 18.044 10.1634C17.9048 10.2969 17.7372 10.3636 17.5412 10.3636ZM22.7241 11.4545V12.3068H19.332V11.4545H22.7241ZM20.3207 9.88636H21.3263V16.125C21.3263 16.4091 21.3675 16.6222 21.4499 16.7642C21.5352 16.9034 21.6431 16.9972 21.7738 17.0455C21.9073 17.0909 22.0479 17.1136 22.1957 17.1136C22.3065 17.1136 22.3974 17.108 22.4684 17.0966C22.5394 17.0824 22.5962 17.071 22.6388 17.0625L22.8434 17.9659C22.7752 17.9915 22.68 18.017 22.5579 18.0426C22.4357 18.071 22.2809 18.0852 22.0934 18.0852C21.8093 18.0852 21.5309 18.0241 21.2582 17.902C20.9883 17.7798 20.7638 17.5938 20.5849 17.3438C20.4087 17.0938 20.3207 16.7784 20.3207 16.3977V9.88636ZM26.9109 18.1364C26.2802 18.1364 25.7362 17.9972 25.2788 17.7188C24.8242 17.4375 24.4734 17.0455 24.2262 16.5426C23.9819 16.0369 23.8597 15.4489 23.8597 14.7784C23.8597 14.108 23.9819 13.517 24.2262 13.0057C24.4734 12.4915 24.8171 12.0909 25.2575 11.804C25.7006 11.5142 26.2177 11.3693 26.8086 11.3693C27.1495 11.3693 27.4862 11.4261 27.8185 11.5398C28.1509 11.6534 28.4535 11.8381 28.7262 12.0938C28.9989 12.3466 29.2163 12.6818 29.3782 13.0994C29.5401 13.517 29.6211 14.0312 29.6211 14.642V15.0682H24.5756V14.1989H28.5984C28.5984 13.8295 28.5245 13.5 28.3768 13.2102C28.2319 12.9205 28.0245 12.6918 27.7546 12.5241C27.4876 12.3565 27.1722 12.2727 26.8086 12.2727C26.408 12.2727 26.0614 12.3722 25.7688 12.571C25.479 12.767 25.256 13.0227 25.0998 13.3381C24.9435 13.6534 24.8654 13.9915 24.8654 14.3523V14.9318C24.8654 15.4261 24.9506 15.8452 25.1211 16.1889C25.2944 16.5298 25.5344 16.7898 25.8413 16.9688C26.1481 17.1449 26.5046 17.233 26.9109 17.233C27.1751 17.233 27.4137 17.196 27.6268 17.1222C27.8427 17.0455 28.0288 16.9318 28.185 16.7812C28.3413 16.6278 28.462 16.4375 28.5472 16.2102L29.5188 16.483C29.4165 16.8125 29.2447 17.1023 29.0032 17.3523C28.7617 17.5994 28.4634 17.7926 28.1083 17.9318C27.7532 18.0682 27.354 18.1364 26.9109 18.1364ZM31.1509 11.4545H32.1566V18.4773C32.1566 18.8807 32.087 19.2301 31.9478 19.5256C31.8114 19.821 31.604 20.0497 31.3256 20.2116C31.0501 20.3736 30.7021 20.4545 30.2816 20.4545C30.2475 20.4545 30.2134 20.4545 30.1793 20.4545C30.1452 20.4545 30.1112 20.4545 30.0771 20.4545V19.517C30.1112 19.517 30.1424 19.517 30.1708 19.517C30.1992 19.517 30.2305 19.517 30.2646 19.517C30.5714 19.517 30.7958 19.4261 30.9379 19.2443C31.0799 19.0653 31.1509 18.8097 31.1509 18.4773V11.4545ZM31.6452 10.3636C31.4492 10.3636 31.2802 10.2969 31.1381 10.1634C30.9989 10.0298 30.9293 9.86932 30.9293 9.68182C30.9293 9.49432 30.9989 9.33381 31.1381 9.20028C31.2802 9.06676 31.4492 9 31.6452 9C31.8413 9 32.0089 9.06676 32.1481 9.20028C32.2901 9.33381 32.3612 9.49432 32.3612 9.68182C32.3612 9.86932 32.2901 10.0298 32.1481 10.1634C32.0089 10.2969 31.8413 10.3636 31.6452 10.3636ZM38.6349 12.9205L37.7315 13.1761C37.6747 13.0256 37.5909 12.8793 37.4801 12.7372C37.3722 12.5923 37.2244 12.473 37.0369 12.3793C36.8494 12.2855 36.6094 12.2386 36.3168 12.2386C35.9162 12.2386 35.5824 12.331 35.3153 12.5156C35.0511 12.6974 34.919 12.929 34.919 13.2102C34.919 13.4602 35.0099 13.6577 35.1918 13.8026C35.3736 13.9474 35.6577 14.0682 36.044 14.1648L37.0156 14.4034C37.6009 14.5455 38.0369 14.7628 38.3239 15.0554C38.6108 15.3452 38.7543 15.7187 38.7543 16.1761C38.7543 16.5511 38.6463 16.8864 38.4304 17.1818C38.2173 17.4773 37.919 17.7102 37.5355 17.8807C37.152 18.0511 36.706 18.1364 36.1974 18.1364C35.5298 18.1364 34.9773 17.9915 34.5398 17.7017C34.1023 17.4119 33.8253 16.9886 33.7088 16.4318L34.6634 16.1932C34.7543 16.5455 34.9261 16.8097 35.179 16.9858C35.4347 17.1619 35.7685 17.25 36.1804 17.25C36.6491 17.25 37.0213 17.1506 37.2969 16.9517C37.5753 16.75 37.7145 16.5085 37.7145 16.2273C37.7145 16 37.6349 15.8097 37.4759 15.6562C37.3168 15.5 37.0724 15.3835 36.7429 15.3068L35.652 15.0511C35.0526 14.9091 34.6122 14.6889 34.331 14.3906C34.0526 14.0895 33.9134 13.7131 33.9134 13.2614C33.9134 12.892 34.017 12.5653 34.2244 12.2812C34.4347 11.9972 34.7202 11.7741 35.081 11.6122C35.4446 11.4503 35.8565 11.3693 36.3168 11.3693C36.9645 11.3693 37.473 11.5114 37.8423 11.7955C38.2145 12.0795 38.4787 12.4545 38.6349 12.9205Z" fill="#211B12"/>
<rect x="0.5" y="0.5" width="47" height="26" rx="3.5" stroke="#DD9C3C"/>
</svg>
